<svg xmlns:xlink="http://www.w3.org/1999/xlink" height="350" viewBox="0 0 1398 350" xmlns="http://www.w3.org/2000/svg" style="width:auto" width="1398" >
        <path d="M0 0 C1.26457031 0.49306641 1.26457031 0.49306641 2.5546875 0.99609375 C13.18223155 5.66381447 19.65399193 13.95789071 25 24 C25.72703125 22.93072266 25.72703125 22.93072266 26.46875 21.83984375 C33.87871058 11.25215007 41.05264307 5.07416704 53 0 C53.80566406 -0.34289062 54.61132812 -0.68578125 55.44140625 -1.0390625 C67.80342997 -5.28540773 85.93495194 -4.97451212 98 0 C101.52858713 1.75923828 104.76954909 3.74390412 108 6 C109.051875 6.721875 110.10375 7.44375 111.1875 8.1875 C122.45603658 19.45603658 127.2013785 35.33686051 127.24884033 50.97109985 C127.2380545 52.40393814 127.2380545 52.40393814 127.22705078 53.86572266 C127.22734283 54.9010614 127.22763489 55.93640015 127.22793579 57.00311279 C127.22655392 60.39018437 127.21104685 63.77702984 127.1953125 67.1640625 C127.19157831 69.5263151 127.18873325 71.88856926 127.18673706 74.25082397 C127.17913262 80.44199973 127.15951168 86.63308035 127.1373291 92.82421875 C127.11680176 99.15233066 127.10772065 105.48045808 127.09765625 111.80859375 C127.07626264 124.2057775 127.04110665 136.60286592 127 149 C113.47 149 99.94 149 86 149 C85.95101563 142.24660156 85.90203125 135.49320313 85.8515625 128.53515625 C85.81616069 124.24673016 85.78019179 119.95832376 85.7421875 115.66992188 C85.68197155 108.86908849 85.62381087 102.06828252 85.578125 95.26733398 C85.54114423 89.78185723 85.49474984 84.2965322 85.44193649 78.81118584 C85.42346039 76.72254547 85.40832763 74.63387266 85.39665604 72.54518318 C85.37967711 69.61077594 85.35061461 66.67671109 85.31884766 63.74243164 C85.31668747 62.88646896 85.31452728 62.03050629 85.31230164 61.14860535 C85.18964359 52.22992129 83.8475242 43.06632901 78 36 C71.32367649 31.01943895 63.87056537 29.52400821 55.6875 30.1875 C48.65215879 31.36005687 42.65389652 34.64649241 38.20703125 40.265625 C32.80656774 48.74635288 30.55003854 57.50058666 30.56762695 67.48876953 C30.5574353 68.37780472 30.54724365 69.2668399 30.53674316 70.18281555 C30.50686658 73.08288074 30.49738634 75.98261432 30.48828125 78.8828125 C30.47141574 80.90877356 30.453263 82.93472427 30.43388367 84.96066284 C30.38658089 90.2640052 30.35664425 95.56730559 30.33044434 100.87078857 C30.2952706 107.24955798 30.23831439 113.62816634 30.18505096 120.00680542 C30.10676858 129.67118257 30.05598777 139.33535224 30 149 C16.14 149 2.28 149 -12 149 C-12.02578125 142.13703125 -12.0515625 135.2740625 -12.078125 128.203125 C-12.10331213 123.83720301 -12.12965951 119.47134901 -12.16015625 115.10546875 C-12.20837836 108.18635868 -12.25246553 101.26740614 -12.27099609 94.34814453 C-12.28621759 88.76529051 -12.32076057 83.18285054 -12.36830902 77.60018158 C-12.38306627 75.47774621 -12.39103774 73.3552517 -12.39188385 71.2327652 C-11.99016307 53.03753104 -11.99016307 53.03753104 -19.4375 36.9375 C-27.08356278 31.15633058 -33.84339123 29.29866236 -43.33203125 30.4765625 C-51.74939453 32.12799248 -57.20570361 36.99458687 -62 44 C-65.85700436 52.12527432 -67.14217277 59.80363611 -67.20532227 68.73754883 C-67.21522186 69.60634674 -67.22512146 70.47514465 -67.23532104 71.37026978 C-67.2668251 74.23249619 -67.29164951 77.09473919 -67.31640625 79.95703125 C-67.33698536 81.94529137 -67.35798208 83.93354722 -67.37937927 85.92179871 C-67.43450108 91.14794441 -67.48395391 96.37412894 -67.53222656 101.6003418 C-67.59135961 107.87464382 -67.65753306 114.14887506 -67.72252655 120.42311859 C-67.82041159 129.9487024 -67.90935283 139.47433218 -68 149 C-81.53 149 -95.06 149 -109 149 C-109 100.16 -109 51.32 -109 1 C-95.47 1 -81.94 1 -68 1 C-67.505 9.91 -67.505 9.91 -67 19 C-65.68 17.47375 -64.36 15.9475 -63 14.375 C-47.59613414 -2.60997807 -21.69133081 -9.08094697 0 0 Z" fill="#111111" transform="translate(1057,127)"></path>
        <path d="M0 0 C2.50078372 2.18441951 4.84045806 4.44974409 7.15625 6.828125 C7.77886719 7.41851562 8.40148437 8.00890625 9.04296875 8.6171875 C26.26585669 26.18840351 27.15625 51.89173979 27.15625 74.828125 C-9.47375 74.828125 -46.10375 74.828125 -83.84375 74.828125 C-80.25135289 88.36754771 -80.25135289 88.36754771 -72.84375 98.828125 C-72.30878906 99.37726563 -71.77382813 99.92640625 -71.22265625 100.4921875 C-61.77689246 109.34895447 -50.9608489 110.29970212 -38.6328125 110.1015625 C-29.77232784 109.75239787 -22.97772849 106.88382987 -16.5625 100.7578125 C-12.53891156 96.24042003 -10.048937 91.418659 -7.84375 85.828125 C-3.48276403 86.20787057 0.87703469 86.59876878 5.23608398 87 C6.71888107 87.13490292 8.20195829 87.26676286 9.68530273 87.39550781 C11.8183573 87.58117711 13.9501624 87.77779424 16.08203125 87.9765625 C17.36505127 88.09177246 18.64807129 88.20698242 19.9699707 88.32568359 C23.15625 88.828125 23.15625 88.828125 26.15625 90.828125 C20.57348999 109.89183544 10.85609932 125.06577024 -6.95703125 134.87792969 C-27.00313338 144.97361156 -52.55688904 145.74027172 -73.86035156 139.20996094 C-92.34572282 132.98168725 -107.24098716 121.63298307 -116.2265625 104.2109375 C-125.61923409 84.56346504 -127.56294565 59.62234979 -120.58447266 38.81201172 C-116.85697518 28.8286088 -111.8283288 19.89365052 -104.84375 11.828125 C-104.22757813 11.01472656 -103.61140625 10.20132813 -102.9765625 9.36328125 C-79.36680529 -18.70033126 -28.59629418 -21.84002687 0 0 Z M-74.09375 29.203125 C-79.08136546 35.36987782 -80.90480087 41.07232847 -82.84375 48.828125 C-60.07375 48.828125 -37.30375 48.828125 -13.84375 48.828125 C-14.87227179 39.57142892 -16.98079806 31.50559175 -23.84375 24.828125 C-40.65083293 13.06316695 -60.03423189 13.80795267 -74.09375 29.203125 Z" fill="#111111" transform="translate(775.84375,137.171875)"></path>
        <path d="M0 0 C63.36 0 126.72 0 192 0 C192 11.55 192 23.1 192 35 C167.25 35 142.5 35 117 35 C117 93.08 117 151.16 117 211 C102.81 211 88.62 211 74 211 C74 152.92 74 94.84 74 35 C49.58 35 25.16 35 0 35 C0 23.45 0 11.9 0 0 Z" fill="#111111" transform="translate(476,65)"></path>
        <path d="M0 0 C1.52840162 0.00056499 3.05680378 0.00024584 4.58520508 -0.00088501 C8.71062185 -0.00145609 12.83592104 0.01025831 16.96131063 0.02426291 C21.28144682 0.03681133 25.60158606 0.037944 29.92173767 0.04031372 C38.09192744 0.04651644 46.26206335 0.06291084 54.43222946 0.0830127 C63.73817856 0.10540938 73.04413031 0.11637459 82.35009968 0.12640357 C101.48334889 0.14727819 120.61654803 0.18243058 139.74975586 0.22705078 C139.03247374 4.28135848 137.94222179 6.87904524 135.65209961 10.32470703 C135.01868652 11.28618652 134.38527344 12.24766602 133.73266602 13.23828125 C132.72018799 14.74865967 132.72018799 14.74865967 131.68725586 16.28955078 C131.00711426 17.31709473 130.32697266 18.34463867 129.6262207 19.40332031 C127.6742662 22.34920054 125.71253597 25.28837787 123.74975586 28.22705078 C122.83596054 29.60787688 121.92302882 30.98927543 121.01147461 32.37158203 C115.94439872 40.03240792 115.94439872 40.03240792 114.74975586 41.22705078 C113.39817839 41.32796409 112.04141287 41.36055424 110.68608093 41.36508179 C109.37218132 41.3732618 109.37218132 41.3732618 108.03173828 41.38160706 C107.06300781 41.38264938 106.09427734 41.38369171 105.09619141 41.38476562 C104.08144241 41.38984634 103.06669342 41.39492706 102.02119446 41.40016174 C99.80748558 41.41089514 97.59376565 41.41950357 95.38004112 41.42628098 C91.8690916 41.43804653 88.35826639 41.45749773 84.84736633 41.47940063 C74.86101469 41.54106447 64.87467236 41.59490463 54.88818359 41.62841797 C48.78555214 41.64945148 42.6831416 41.68483561 36.58063698 41.72917557 C34.2600243 41.74327974 31.93937246 41.7520453 29.6187191 41.75522995 C4.57924725 41.74050967 4.57924725 41.74050967 -16.57446289 54.18408203 C-21.20068159 58.92155871 -24.38604192 64.49940866 -27.75024414 70.16455078 C-28.44894302 71.32346065 -29.1488361 72.48165129 -29.84985352 73.63916016 C-30.92816525 75.41992181 -32.00576763 77.20106687 -33.07971191 78.98446655 C-36.56779639 84.77528606 -40.15234694 90.50390632 -43.75024414 96.22705078 C-49.79191936 105.8632014 -55.76729675 115.53896765 -61.70922852 125.23681641 C-62.94489141 127.25101094 -64.18623745 129.26173243 -65.43383789 131.26855469 C-66.68433047 133.30531129 -67.90411815 135.36113511 -69.09790039 137.43164062 C-69.69473633 138.44049316 -70.29157227 139.4493457 -70.90649414 140.48876953 C-71.43049805 141.39973389 -71.95450195 142.31069824 -72.49438477 143.24926758 C-74.25024414 145.22705078 -74.25024414 145.22705078 -76.80688477 145.71166992 C-79.25024414 145.22705078 -79.25024414 145.22705078 -81.68774414 142.21142578 C-82.55994975 140.81104273 -83.41281672 139.39850449 -84.25024414 137.97705078 C-85.20316519 136.42274104 -86.15766235 134.86939676 -87.11352539 133.31689453 C-87.61577637 132.4917334 -88.11802734 131.66657227 -88.63549805 130.81640625 C-90.31713993 128.11977882 -92.07223235 125.48622214 -93.85571289 122.85595703 C-94.4519043 121.97004883 -95.0480957 121.08414063 -95.66235352 120.17138672 C-96.82802044 118.44340412 -98.00225668 116.72116529 -99.18579102 115.00537109 C-101.36444048 111.73210249 -103.06492614 109.04161237 -103.94165039 105.18798828 C-102.89357741 100.69963052 -100.55158068 97.33528922 -98.00024414 93.53955078 C-96.89051165 91.83796096 -95.78114675 90.13613135 -94.67211914 88.43408203 C-93.81650391 87.13591553 -93.81650391 87.13591553 -92.94360352 85.81152344 C-90.326128 81.81662785 -87.79025296 77.77145515 -85.25024414 73.72705078 C-84.25068575 72.14343862 -83.25068434 70.56010601 -82.25024414 68.97705078 C-81.75524414 68.19330078 -81.26024414 67.40955078 -80.75024414 66.60205078 C-79.25024414 64.22705078 -77.75024414 61.85205078 -76.25024414 59.47705078 C-75.75484131 58.69249512 -75.25943848 57.90793945 -74.74902344 57.09960938 C-73.75370529 55.52402675 -72.75777893 53.94882818 -71.76123047 52.37402344 C-69.18435333 48.30011946 -66.6199239 44.21910694 -64.07446289 40.12548828 C-46.86516965 12.50599631 -46.86516965 12.50599631 -31.75024414 5.35205078 C-30.84338867 4.92255127 -30.84338867 4.92255127 -29.91821289 4.484375 C-20.10157004 0.11470769 -10.58697373 -0.0550634 0 0 Z" fill="#32A872" transform="translate(269.250244140625,64.77294921875)"></path>
        <path d="M0 0 C1.57325328 0.00561112 3.14651189 0.00987403 4.71977234 0.01286316 C8.81492166 0.02419288 12.90974011 0.05355414 17.00476074 0.0869751 C21.20169604 0.11793559 25.39868599 0.1314234 29.59570312 0.14648438 C37.79702505 0.17843826 45.99808048 0.22948628 54.19921875 0.29296875 C54.52921875 1.28296875 54.85921875 2.27296875 55.19921875 3.29296875 C53.7740114 6.03304481 52.29111261 8.56983993 50.63671875 11.16796875 C49.90799561 12.33573853 49.90799561 12.33573853 49.16455078 13.52709961 C32.55656425 39.93562325 32.55656425 39.93562325 29.19921875 43.29296875 C27.12188043 43.40304021 25.0410955 43.44892811 22.9609375 43.46875 C21.01670898 43.50452148 21.01670898 43.50452148 19.03320312 43.54101562 C16.97768777 43.57572323 14.9227121 43.60522946 12.86694336 43.61889648 C1.16539726 43.71184534 -10.30851385 44.97506639 -19.54296875 52.8359375 C-24.87952045 58.64336141 -28.74208177 65.56749145 -32.80078125 72.29296875 C-33.91834977 74.12165696 -35.03687239 75.94976236 -36.15625 77.77734375 C-38.53649545 81.67159449 -40.90624948 85.57199605 -43.26953125 89.4765625 C-47.05283907 95.720466 -50.89022944 101.92988622 -54.74536133 108.12963867 C-57.49620403 112.5571616 -60.23206448 116.99287973 -62.9385376 121.44770813 C-64.38804969 123.83331454 -65.8415354 126.21649075 -67.29498291 128.59970093 C-68.34110053 130.31901432 -69.38130982 132.04191821 -70.42138672 133.76489258 C-71.38455811 135.34306763 -71.38455811 135.34306763 -72.3671875 136.953125 C-72.93381104 137.88777588 -73.50043457 138.82242676 -74.08422852 139.78540039 C-75.78351884 142.26775154 -77.60608513 144.24472576 -79.80078125 146.29296875 C-83.88652637 144.77600667 -85.39308049 142.33370869 -87.69921875 138.7265625 C-88.05666168 138.17364029 -88.41410461 137.62071808 -88.78237915 137.05104065 C-89.92254375 135.28313154 -91.04938433 133.50717409 -92.17578125 131.73046875 C-93.29468429 129.98605438 -94.4162244 128.2433585 -95.53814697 126.50088501 C-96.62383906 124.80913196 -97.70016507 123.11138007 -98.77636719 121.41357422 C-100.55480743 118.6721339 -102.42663887 116.03799277 -104.33984375 113.390625 C-106.10159915 110.69862841 -106.84290006 109.1103837 -107.58203125 105.90625 C-106.37922046 100.3432501 -103.41984538 96.18386214 -100.30078125 91.48046875 C-98.91287302 89.32628673 -97.52619508 87.17131166 -96.140625 85.015625 C-95.78181747 84.46219421 -95.42300995 83.90876343 -95.05332947 83.33856201 C-91.2210223 77.42736077 -87.54087282 71.42611383 -83.86328125 65.41796875 C-83.20577881 64.3508667 -82.54827637 63.28376465 -81.87084961 62.18432617 C-78.76151258 57.1374672 -75.6670231 52.08279261 -72.61769104 46.9994812 C-71.55704584 45.23308926 -70.49197683 43.46944158 -69.42553711 41.70654297 C-68.09718228 39.50776741 -66.77701775 37.30401235 -65.46704102 35.09423828 C-55.63126195 18.87046017 -42.79401959 6.4813646 -24.09545898 1.71044922 C-16.04008584 -0.09715182 -8.19516714 -0.08716094 0 0 Z" fill="#2675B1" transform="translate(313.80078125,126.70703125)"></path>
        <path d="M0 0 C0.28051758 1.86914062 0.28051758 1.86914062 0.14453125 4.15625 C0.09997803 5.00614502 0.0554248 5.85604004 0.00952148 6.73168945 C-0.05549561 7.64523193 -0.1205127 8.55877441 -0.1875 9.5 C-0.24284912 10.43094482 -0.29819824 11.36188965 -0.35522461 12.32104492 C-0.92541654 21.24799399 -1.88405346 30.12659982 -3 39 C-8.58806405 37.15866084 -8.58806405 37.15866084 -11.2109375 36.1484375 C-20.27133116 32.91024626 -31.35114727 32.28698483 -40.5 35.5625 C-48.9512521 39.66050647 -53.56669146 45.14148285 -57.7734375 53.44921875 C-61.5513017 64.38577468 -61.3351725 75.81166381 -61.4140625 87.234375 C-61.43281196 88.9660124 -61.45238806 90.69764103 -61.4727478 92.42926025 C-61.52367648 96.94672428 -61.56351007 101.4642178 -61.60089111 105.98181152 C-61.6482857 111.42366996 -61.70971231 116.86538658 -61.76873779 122.30712891 C-61.85647024 130.53802744 -61.92657709 138.76890544 -62 147 C-75.53 147 -89.06 147 -103 147 C-103 98.16 -103 49.32 -103 -1 C-89.47 -1 -75.94 -1 -62 -1 C-61.67 6.26 -61.34 13.52 -61 21 C-59.989375 19.329375 -58.97875 17.65875 -57.9375 15.9375 C-52.91030773 8.07367916 -47.32944556 2.30670196 -39 -2 C-38.38125 -2.32097656 -37.7625 -2.64195313 -37.125 -2.97265625 C-26.01342265 -7.63865064 -9.95562168 -6.63708112 0 0 Z" fill="#111111" transform="translate(930,129)"></path>
        <path d="M0 0 C13.53 0 27.06 0 41 0 C41 48.84 41 97.68 41 148 C27.47 148 13.94 148 0 148 C0 99.16 0 50.32 0 0 Z" fill="#111111" transform="translate(1289,128)"></path>
        <path d="M0 0 C13.53 0 27.06 0 41 0 C41 48.84 41 97.68 41 148 C27.47 148 13.94 148 0 148 C0 99.16 0 50.32 0 0 Z" fill="#111111" transform="translate(1215,128)"></path>
        <path d="M0 0 C4.3268981 3.51214398 7.03785609 6.5580152 8.44921875 12.109375 C8.56234146 19.33050462 6.78576392 24.36955517 2.82421875 30.296875 C2.34927979 31.0401001 1.87434082 31.7833252 1.38500977 32.54907227 C-0.24122272 35.08201804 -1.89582027 37.59511615 -3.55078125 40.109375 C-4.88413591 42.16580919 -6.21611135 44.22313816 -7.546875 46.28125 C-11.84556344 52.91426089 -16.16631944 59.53268229 -20.55078125 66.109375 C-22.34545898 65.91723633 -22.34545898 65.91723633 -24.55078125 65.109375 C-26.20727539 62.9831543 -26.20727539 62.9831543 -27.8359375 60.18359375 C-28.44356934 59.16458984 -29.05120117 58.14558594 -29.67724609 57.09570312 C-30.3161377 56.00708984 -30.9550293 54.91847656 -31.61328125 53.796875 C-37.20698529 44.55946605 -42.69412287 36.53024409 -50.55078125 29.109375 C-51.27136719 28.38234375 -51.99195313 27.6553125 -52.734375 26.90625 C-69.01326187 11.25462299 -92.55866328 4.61001364 -114.55078125 3.109375 C-114.55078125 2.119375 -114.55078125 1.129375 -114.55078125 0.109375 C-75.77140212 -20.85051918 -37.74683585 -27.97774664 0 0 Z" fill="#32A872" transform="translate(174.55078125,81.890625)"></path>
        <path d="M0 0 C6.23537459 3.76227243 10.1496487 9.06771679 12.16015625 16.0390625 C13.25801873 22.58360193 12.19457219 28.85967485 8.5625 34.4375 C6.125 37.125 6.125 37.125 3.5625 39.4375 C2.964375 39.994375 2.36625 40.55125 1.75 41.125 C-4.52055662 44.88733397 -11.46917384 45.14357667 -18.4375 43.4375 C-24.71733284 40.69760784 -29.54386654 36.35145366 -32.546875 30.14453125 C-34.61109292 23.8703952 -34.60712209 16.07398816 -31.875 10 C-25.31541165 -1.00243011 -11.86417486 -5.33658831 0 0 Z" fill="#111111" transform="translate(1246.4375,63.5625)"></path>
        <path d="M0 0 C5.62190491 3.35174881 9.56334243 8.22193737 11.5625 14.4375 C12.40254483 22.06627917 12.38707931 29.18553036 7.5625 35.4375 C3.17836366 40.41224538 -1.88446774 43.32572944 -8.4375 44.4375 C-14.85739403 44.67345323 -20.40565451 43.54663543 -25.4375 39.4375 C-30.99545207 33.91805568 -33.72522037 29.68231409 -33.8125 21.6875 C-33.68687734 14.56395631 -32.71422258 9.90057647 -27.7890625 4.6953125 C-20.23259347 -2.20120291 -9.6021224 -4.31910139 0 0 Z" fill="#111111" transform="translate(1320.4375,63.5625)"></path>
      </svg>